Merge "cosa.step";
Physical Volume("vol", 2) = {1};
//+
Surface Loop(2) = {1, 2, 3, 4};
//+
Volume(2) = {2};
//+
Curve Loop(7) = {4, 5, 1};
//+
Surface(5) = {7};
//+
Curve Loop(8) = {3};
//+
Surface(6) = {8};
